ply
format ascii 1.0
comment VCGLIB generated
element vertex 386
property float x
property float y
property float z
element face 768
property list uchar int vertex_indices
end_header
0.5 0.5 0.5 
-0.5 0.5 0.5 
0.5 -0.5 0.5 
-0.5 -0.5 0.5 
0.5 0.5 -0.5 
-0.5 0.5 -0.5 
0.5 -0.5 -0.5 
-0.5 -0.5 -0.5 
0 0.5 0.5 
0 0 0.5 
0.5 0 0.5 
0 -0.5 0.5 
-0.5 0 0.5 
0.5 0 0 
0.5 0.5 0 
0.5 0 -0.5 
0.5 -0.5 0 
0 0.5 0 
-0.5 0.5 0 
0 0.5 -0.5 
-0.5 0 -0.5 
0 0 -0.5 
0 -0.5 -0.5 
0 -0.5 0 
-0.5 -0.5 0 
-0.5 0 0 
0 0.25 0.5 
0.25 0 0.5 
0.25 0.25 0.5 
0 -0.25 0.5 
-0.25 0 0.5 
-0.25 -0.25 0.5 
0.5 0 0.25 
0.5 0.25 0 
0.5 0.25 0.25 
0.5 0 -0.25 
0.5 -0.25 0 
0.5 -0.25 -0.25 
0.25 0.5 0 
0 0.5 0.25 
0.25 0.5 0.25 
-0.25 0.5 0 
0 0.5 -0.25 
-0.25 0.5 -0.25 
-0.25 0 -0.5 
0 -0.25 -0.5 
-0.25 -0.25 -0.5 
0.25 0 -0.5 
0 0.25 -0.5 
0.25 0.25 -0.5 
0 -0.5 -0.25 
-0.25 -0.5 0 
-0.25 -0.5 -0.25 
0 -0.5 0.25 
0.25 -0.5 0 
0.25 -0.5 0.25 
-0.5 -0.25 0 
-0.5 0 -0.25 
-0.5 -0.25 -0.25 
-0.5 0.25 0 
-0.5 0 0.25 
-0.5 0.25 0.25 
0.25 0.5 0.5 
0.5 0.25 0.5 
-0.25 0.5 0.5 
-0.25 0.25 0.5 
0.25 -0.25 0.5 
0.5 -0.25 0.5 
-0.25 -0.5 0.5 
-0.5 -0.25 0.5 
0.25 -0.5 0.5 
-0.5 0.25 0.5 
0.5 0.5 0.25 
0.5 -0.25 0.25 
0.5 0.25 -0.25 
0.5 0.5 -0.25 
0.5 -0.25 -0.5 
0.5 -0.5 -0.25 
0.5 0.25 -0.5 
0.5 -0.5 0.25 
0.25 0.5 -0.25 
-0.25 0.5 0.25 
-0.5 0.5 -0.25 
-0.25 0.5 -0.5 
-0.5 0.5 0.25 
0.25 0.5 -0.5 
-0.5 -0.25 -0.5 
-0.25 -0.5 -0.5 
-0.5 0.25 -0.5 
-0.25 0.25 -0.5 
0.25 -0.25 -0.5 
0.25 -0.5 -0.5 
-0.5 -0.5 -0.25 
0.25 -0.5 -0.25 
-0.25 -0.5 0.25 
-0.5 -0.5 0.25 
-0.5 -0.25 0.25 
-0.5 0.25 -0.25 
0.125 0.125 0.5 
0.25 0.125 0.5 
0.125 0.25 0.5 
-0.125 -0.125 0.5 
-0.25 -0.125 0.5 
-0.125 -0.25 0.5 
0.5 0.125 0.125 
0.5 0.25 0.125 
0.5 0.125 0.25 
0.5 -0.125 -0.125 
0.5 -0.25 -0.125 
0.5 -0.125 -0.25 
0.125 0.5 0.125 
0.125 0.5 0.25 
0.25 0.5 0.125 
-0.125 0.5 -0.125 
-0.125 0.5 -0.25 
-0.25 0.5 -0.125 
-0.125 -0.125 -0.5 
-0.125 -0.25 -0.5 
-0.25 -0.125 -0.5 
0.125 0.125 -0.5 
0.125 0.25 -0.5 
0.25 0.125 -0.5 
-0.125 -0.5 -0.125 
-0.25 -0.5 -0.125 
-0.125 -0.5 -0.25 
0.125 -0.5 0.125 
0.25 -0.5 0.125 
0.125 -0.5 0.25 
-0.5 -0.125 -0.125 
-0.5 -0.125 -0.25 
-0.5 -0.25 -0.125 
-0.5 0.125 0.125 
-0.5 0.125 0.25 
-0.5 0.25 0.125 
0.25 0.375 0.5 
0.375 0.25 0.5 
0.375 0.375 0.5 
-0.25 0.375 0.5 
-0.125 0.25 0.5 
-0.125 0.375 0.5 
0.25 -0.125 0.5 
0.375 -0.25 0.5 
0.375 -0.125 0.5 
-0.25 -0.375 0.5 
-0.375 -0.25 0.5 
-0.375 -0.375 0.5 
0.25 -0.375 0.5 
0.125 -0.25 0.5 
0.125 -0.375 0.5 
-0.25 0.125 0.5 
-0.375 0.25 0.5 
-0.375 0.125 0.5 
0.5 0.25 0.375 
0.5 0.375 0.25 
0.5 0.375 0.375 
0.5 -0.25 0.375 
0.5 -0.125 0.25 
0.5 -0.125 0.375 
0.5 0.25 -0.125 
0.5 0.375 -0.25 
0.5 0.375 -0.125 
0.5 -0.25 -0.375 
0.5 -0.375 -0.25 
0.5 -0.375 -0.375 
0.5 0.25 -0.375 
0.5 0.125 -0.25 
0.5 0.125 -0.375 
0.5 -0.25 0.125 
0.5 -0.375 0.25 
0.5 -0.375 0.125 
0.375 0.5 0.25 
0.25 0.5 0.375 
0.375 0.5 0.375 
0.375 0.5 -0.25 
0.25 0.5 -0.125 
0.375 0.5 -0.125 
-0.125 0.5 0.25 
-0.25 0.5 0.375 
-0.125 0.5 0.375 
-0.375 0.5 -0.25 
-0.25 0.5 -0.375 
-0.375 0.5 -0.375 
-0.375 0.5 0.25 
-0.25 0.5 0.125 
-0.375 0.5 0.125 
0.125 0.5 -0.25 
0.25 0.5 -0.375 
0.125 0.5 -0.375 
-0.375 -0.25 -0.5 
-0.25 -0.375 -0.5 
-0.375 -0.375 -0.5 
-0.375 0.25 -0.5 
-0.25 0.125 -0.5 
-0.375 0.125 -0.5 
0.125 -0.25 -0.5 
0.25 -0.375 -0.5 
0.125 -0.375 -0.5 
0.375 0.25 -0.5 
0.25 0.375 -0.5 
0.375 0.375 -0.5 
0.375 -0.25 -0.5 
0.25 -0.125 -0.5 
0.375 -0.125 -0.5 
-0.125 0.25 -0.5 
-0.25 0.375 -0.5 
-0.125 0.375 -0.5 
-0.25 -0.5 -0.375 
-0.375 -0.5 -0.25 
-0.375 -0.5 -0.375 
0.25 -0.5 -0.375 
0.125 -0.5 -0.25 
0.125 -0.5 -0.375 
-0.25 -0.5 0.125 
-0.375 -0.5 0.25 
-0.375 -0.5 0.125 
0.25 -0.5 0.375 
0.375 -0.5 0.25 
0.375 -0.5 0.375 
-0.25 -0.5 0.375 
-0.125 -0.5 0.25 
-0.125 -0.5 0.375 
0.25 -0.5 -0.125 
0.375 -0.5 -0.25 
0.375 -0.5 -0.125 
-0.5 -0.375 -0.25 
-0.5 -0.25 -0.375 
-0.5 -0.375 -0.375 
-0.5 -0.375 0.25 
-0.5 -0.25 0.125 
-0.5 -0.375 0.125 
-0.5 0.125 -0.25 
-0.5 0.25 -0.375 
-0.5 0.125 -0.375 
-0.5 0.375 0.25 
-0.5 0.25 0.375 
-0.5 0.375 0.375 
-0.5 0.375 -0.25 
-0.5 0.25 -0.125 
-0.5 0.375 -0.125 
-0.5 -0.125 0.25 
-0.5 -0.25 0.375 
-0.5 -0.125 0.375 
0 0.375 0.5 
0.125 0.375 0.5 
0 0.125 0.5 
0.125 0 0.5 
0.375 0 0.5 
0.375 0.125 0.5 
0 -0.375 0.5 
-0.125 -0.375 0.5 
0 -0.125 0.5 
-0.125 0 0.5 
-0.375 0 0.5 
-0.375 -0.125 0.5 
0.5 0 0.375 
0.5 0.125 0.375 
0.5 0 0.125 
0.5 0.125 0 
0.5 0.375 0 
0.5 0.375 0.125 
0.5 0 -0.375 
0.5 -0.125 -0.375 
0.5 0 -0.125 
0.5 -0.125 0 
0.5 -0.375 0 
0.5 -0.375 -0.125 
0.375 0.5 0 
0.375 0.5 0.125 
0.125 0.5 0 
0 0.5 0.125 
0 0.5 0.375 
0.125 0.5 0.375 
-0.375 0.5 0 
-0.375 0.5 -0.125 
-0.125 0.5 0 
0 0.5 -0.125 
0 0.5 -0.375 
-0.125 0.5 -0.375 
-0.375 0 -0.5 
-0.375 -0.125 -0.5 
-0.125 0 -0.5 
0 -0.125 -0.5 
0 -0.375 -0.5 
-0.125 -0.375 -0.5 
0.375 0 -0.5 
0.375 0.125 -0.5 
0.125 0 -0.5 
0 0.125 -0.5 
0 0.375 -0.5 
0.125 0.375 -0.5 
0 -0.5 -0.375 
-0.125 -0.5 -0.375 
0 -0.5 -0.125 
-0.125 -0.5 0 
-0.375 -0.5 0 
-0.375 -0.5 -0.125 
0 -0.5 0.375 
0.125 -0.5 0.375 
0 -0.5 0.125 
0.125 -0.5 0 
0.375 -0.5 0 
0.375 -0.5 0.125 
-0.5 -0.375 0 
-0.5 -0.375 -0.125 
-0.5 -0.125 0 
-0.5 0 -0.125 
-0.5 0 -0.375 
-0.5 -0.125 -0.375 
-0.5 0.375 0 
-0.5 0.375 0.125 
-0.5 0.125 0 
-0.5 0 0.125 
-0.5 0 0.375 
-0.5 0.125 0.375 
0.375 0.5 0.5 
0.5 0.375 0.5 
0.125 0.5 0.5 
0.5 0.125 0.5 
-0.125 0.5 0.5 
-0.375 0.5 0.5 
-0.375 0.375 0.5 
-0.125 0.125 0.5 
0.5 -0.125 0.5 
0.125 -0.125 0.5 
0.375 -0.375 0.5 
0.5 -0.375 0.5 
-0.375 -0.5 0.5 
-0.5 -0.375 0.5 
-0.125 -0.5 0.5 
-0.5 -0.125 0.5 
0.125 -0.5 0.5 
0.375 -0.5 0.5 
-0.5 0.125 0.5 
-0.5 0.375 0.5 
0.5 0.5 0.375 
0.5 0.5 0.125 
0.5 -0.375 0.375 
0.5 -0.125 0.125 
0.5 0.5 -0.125 
0.5 0.125 -0.125 
0.5 0.375 -0.375 
0.5 0.5 -0.375 
0.5 -0.375 -0.5 
0.5 -0.5 -0.375 
0.5 -0.125 -0.5 
0.5 -0.5 -0.125 
0.5 0.125 -0.5 
0.5 0.375 -0.5 
0.5 -0.5 0.125 
0.5 -0.5 0.375 
0.375 0.5 -0.375 
0.125 0.5 -0.125 
-0.125 0.5 0.125 
-0.375 0.5 0.375 
-0.5 0.5 -0.375 
-0.375 0.5 -0.5 
-0.5 0.5 -0.125 
-0.125 0.5 -0.5 
-0.5 0.5 0.125 
-0.5 0.5 0.375 
0.125 0.5 -0.5 
0.375 0.5 -0.5 
-0.5 -0.375 -0.5 
-0.375 -0.5 -0.5 
-0.5 -0.125 -0.5 
-0.125 -0.5 -0.5 
-0.5 0.125 -0.5 
-0.5 0.375 -0.5 
-0.375 0.375 -0.5 
-0.125 0.125 -0.5 
0.125 -0.5 -0.5 
0.125 -0.125 -0.5 
0.375 -0.375 -0.5 
0.375 -0.5 -0.5 
-0.5 -0.5 -0.375 
-0.5 -0.5 -0.125 
0.375 -0.5 -0.375 
0.125 -0.5 -0.125 
-0.5 -0.5 0.125 
-0.125 -0.5 0.125 
-0.375 -0.5 0.375 
-0.5 -0.5 0.375 
-0.5 -0.375 0.375 
-0.5 -0.125 0.125 
-0.5 0.125 -0.125 
-0.5 0.375 -0.375 
3 98 99 100 
3 101 102 103 
3 104 105 106 
3 107 108 109 
3 110 111 112 
3 113 114 115 
3 116 117 118 
3 119 120 121 
3 122 123 124 
3 125 126 127 
3 128 129 130 
3 131 132 133 
3 134 135 136 
3 137 138 139 
3 140 141 142 
3 143 144 145 
3 146 147 148 
3 149 150 151 
3 152 153 154 
3 155 156 157 
3 158 159 160 
3 161 162 163 
3 164 165 166 
3 167 168 169 
3 170 171 172 
3 173 174 175 
3 176 177 178 
3 179 180 181 
3 182 183 184 
3 185 186 187 
3 188 189 190 
3 191 192 193 
3 194 195 196 
3 197 198 199 
3 200 201 202 
3 203 204 205 
3 206 207 208 
3 209 210 211 
3 212 213 214 
3 215 216 217 
3 218 219 220 
3 221 222 223 
3 224 225 226 
3 227 228 229 
3 230 231 232 
3 233 234 235 
3 236 237 238 
3 239 240 241 
3 242 100 243 
3 244 245 98 
3 99 246 247 
3 248 103 249 
3 250 251 101 
3 102 252 253 
3 254 106 255 
3 256 257 104 
3 105 258 259 
3 260 109 261 
3 262 263 107 
3 108 264 265 
3 266 112 267 
3 268 269 110 
3 111 270 271 
3 272 115 273 
3 274 275 113 
3 114 276 277 
3 278 118 279 
3 280 281 116 
3 117 282 283 
3 284 121 285 
3 286 287 119 
3 120 288 289 
3 290 124 291 
3 292 293 122 
3 123 294 295 
3 296 127 297 
3 298 299 125 
3 126 300 301 
3 302 130 303 
3 304 305 128 
3 129 306 307 
3 308 133 309 
3 310 311 131 
3 132 312 313 
3 314 136 315 
3 316 243 134 
3 135 247 317 
3 318 139 242 
3 319 320 137 
3 138 321 244 
3 246 142 322 
3 245 323 140 
3 141 324 325 
3 326 145 327 
3 328 249 143 
3 144 253 329 
3 330 148 248 
3 331 324 146 
3 147 323 250 
3 252 151 332 
3 251 321 149 
3 150 320 333 
3 315 154 334 
3 317 255 152 
3 153 259 335 
3 322 157 254 
3 325 336 155 
3 156 337 256 
3 258 160 338 
3 257 339 158 
3 159 340 341 
3 342 163 343 
3 344 261 161 
3 162 265 345 
3 346 166 260 
3 347 340 164 
3 165 339 262 
3 264 169 348 
3 263 337 167 
3 168 336 349 
3 334 172 314 
3 335 267 170 
3 171 271 316 
3 338 175 266 
3 341 350 173 
3 174 351 268 
3 270 178 318 
3 269 352 176 
3 177 353 319 
3 354 181 355 
3 356 273 179 
3 180 277 357 
3 358 184 272 
3 359 353 182 
3 183 352 274 
3 276 187 360 
3 275 351 185 
3 186 350 361 
3 362 190 363 
3 364 279 188 
3 189 283 365 
3 366 193 278 
3 367 368 191 
3 192 369 280 
3 282 196 370 
3 281 371 194 
3 195 372 373 
3 347 199 361 
3 346 285 197 
3 198 289 360 
3 344 202 284 
3 342 372 200 
3 201 371 286 
3 288 205 357 
3 287 369 203 
3 204 368 355 
3 363 208 374 
3 365 291 206 
3 207 295 375 
3 370 211 290 
3 373 376 209 
3 210 377 292 
3 294 214 378 
3 293 379 212 
3 213 380 381 
3 331 217 349 
3 330 297 215 
3 216 301 348 
3 328 220 296 
3 326 380 218 
3 219 379 298 
3 300 223 345 
3 299 377 221 
3 222 376 343 
3 374 226 362 
3 375 303 224 
3 225 307 364 
3 378 229 302 
3 381 382 227 
3 228 383 304 
3 306 232 366 
3 305 384 230 
3 231 385 367 
3 359 235 333 
3 358 309 233 
3 234 313 332 
3 356 238 308 
3 354 385 236 
3 237 384 310 
3 312 241 329 
3 311 383 239 
3 240 382 327 
3 26 98 100 
3 98 27 99 
3 100 99 28 
3 29 101 103 
3 101 30 102 
3 103 102 31 
3 32 104 106 
3 104 33 105 
3 106 105 34 
3 35 107 109 
3 107 36 108 
3 109 108 37 
3 38 110 112 
3 110 39 111 
3 112 111 40 
3 41 113 115 
3 113 42 114 
3 115 114 43 
3 44 116 118 
3 116 45 117 
3 118 117 46 
3 47 119 121 
3 119 48 120 
3 121 120 49 
3 50 122 124 
3 122 51 123 
3 124 123 52 
3 53 125 127 
3 125 54 126 
3 127 126 55 
3 56 128 130 
3 128 57 129 
3 130 129 58 
3 59 131 133 
3 131 60 132 
3 133 132 61 
3 62 134 136 
3 134 28 135 
3 136 135 63 
3 64 137 139 
3 137 65 138 
3 139 138 26 
3 27 140 142 
3 140 66 141 
3 142 141 67 
3 68 143 145 
3 143 31 144 
3 145 144 69 
3 70 146 148 
3 146 66 147 
3 148 147 29 
3 30 149 151 
3 149 65 150 
3 151 150 71 
3 63 152 154 
3 152 34 153 
3 154 153 72 
3 67 155 157 
3 155 73 156 
3 157 156 32 
3 33 158 160 
3 158 74 159 
3 160 159 75 
3 76 161 163 
3 161 37 162 
3 163 162 77 
3 78 164 166 
3 164 74 165 
3 166 165 35 
3 36 167 169 
3 167 73 168 
3 169 168 79 
3 72 170 172 
3 170 40 171 
3 172 171 62 
3 75 173 175 
3 173 80 174 
3 175 174 38 
3 39 176 178 
3 176 81 177 
3 178 177 64 
3 82 179 181 
3 179 43 180 
3 181 180 83 
3 84 182 184 
3 182 81 183 
3 184 183 41 
3 42 185 187 
3 185 80 186 
3 187 186 85 
3 86 188 190 
3 188 46 189 
3 190 189 87 
3 88 191 193 
3 191 89 192 
3 193 192 44 
3 45 194 196 
3 194 90 195 
3 196 195 91 
3 78 197 199 
3 197 49 198 
3 199 198 85 
3 76 200 202 
3 200 90 201 
3 202 201 47 
3 48 203 205 
3 203 89 204 
3 205 204 83 
3 87 206 208 
3 206 52 207 
3 208 207 92 
3 91 209 211 
3 209 93 210 
3 211 210 50 
3 51 212 214 
3 212 94 213 
3 214 213 95 
3 70 215 217 
3 215 55 216 
3 217 216 79 
3 68 218 220 
3 218 94 219 
3 220 219 53 
3 54 221 223 
3 221 93 222 
3 223 222 77 
3 92 224 226 
3 224 58 225 
3 226 225 86 
3 95 227 229 
3 227 96 228 
3 229 228 56 
3 57 230 232 
3 230 97 231 
3 232 231 88 
3 84 233 235 
3 233 61 234 
3 235 234 71 
3 82 236 238 
3 236 97 237 
3 238 237 59 
3 60 239 241 
3 239 96 240 
3 241 240 69 
3 8 242 243 
3 242 26 100 
3 243 100 28 
3 26 244 98 
3 244 9 245 
3 98 245 27 
3 28 99 247 
3 99 27 246 
3 247 246 10 
3 11 248 249 
3 248 29 103 
3 249 103 31 
3 29 250 101 
3 250 9 251 
3 101 251 30 
3 31 102 253 
3 102 30 252 
3 253 252 12 
3 10 254 255 
3 254 32 106 
3 255 106 34 
3 32 256 104 
3 256 13 257 
3 104 257 33 
3 34 105 259 
3 105 33 258 
3 259 258 14 
3 15 260 261 
3 260 35 109 
3 261 109 37 
3 35 262 107 
3 262 13 263 
3 107 263 36 
3 37 108 265 
3 108 36 264 
3 265 264 16 
3 14 266 267 
3 266 38 112 
3 267 112 40 
3 38 268 110 
3 268 17 269 
3 110 269 39 
3 40 111 271 
3 111 39 270 
3 271 270 8 
3 18 272 273 
3 272 41 115 
3 273 115 43 
3 41 274 113 
3 274 17 275 
3 113 275 42 
3 43 114 277 
3 114 42 276 
3 277 276 19 
3 20 278 279 
3 278 44 118 
3 279 118 46 
3 44 280 116 
3 280 21 281 
3 116 281 45 
3 46 117 283 
3 117 45 282 
3 283 282 22 
3 15 284 285 
3 284 47 121 
3 285 121 49 
3 47 286 119 
3 286 21 287 
3 119 287 48 
3 49 120 289 
3 120 48 288 
3 289 288 19 
3 22 290 291 
3 290 50 124 
3 291 124 52 
3 50 292 122 
3 292 23 293 
3 122 293 51 
3 52 123 295 
3 123 51 294 
3 295 294 24 
3 11 296 297 
3 296 53 127 
3 297 127 55 
3 53 298 125 
3 298 23 299 
3 125 299 54 
3 55 126 301 
3 126 54 300 
3 301 300 16 
3 24 302 303 
3 302 56 130 
3 303 130 58 
3 56 304 128 
3 304 25 305 
3 128 305 57 
3 58 129 307 
3 129 57 306 
3 307 306 20 
3 18 308 309 
3 308 59 133 
3 309 133 61 
3 59 310 131 
3 310 25 311 
3 131 311 60 
3 61 132 313 
3 132 60 312 
3 313 312 12 
3 0 314 315 
3 314 62 136 
3 315 136 63 
3 62 316 134 
3 316 8 243 
3 134 243 28 
3 63 135 317 
3 135 28 247 
3 317 247 10 
3 8 318 242 
3 318 64 139 
3 242 139 26 
3 64 319 137 
3 319 1 320 
3 137 320 65 
3 26 138 244 
3 138 65 321 
3 244 321 9 
3 10 246 322 
3 246 27 142 
3 322 142 67 
3 27 245 140 
3 245 9 323 
3 140 323 66 
3 67 141 325 
3 141 66 324 
3 325 324 2 
3 3 326 327 
3 326 68 145 
3 327 145 69 
3 68 328 143 
3 328 11 249 
3 143 249 31 
3 69 144 329 
3 144 31 253 
3 329 253 12 
3 11 330 248 
3 330 70 148 
3 248 148 29 
3 70 331 146 
3 331 2 324 
3 146 324 66 
3 29 147 250 
3 147 66 323 
3 250 323 9 
3 12 252 332 
3 252 30 151 
3 332 151 71 
3 30 251 149 
3 251 9 321 
3 149 321 65 
3 71 150 333 
3 150 65 320 
3 333 320 1 
3 0 315 334 
3 315 63 154 
3 334 154 72 
3 63 317 152 
3 317 10 255 
3 152 255 34 
3 72 153 335 
3 153 34 259 
3 335 259 14 
3 10 322 254 
3 322 67 157 
3 254 157 32 
3 67 325 155 
3 325 2 336 
3 155 336 73 
3 32 156 256 
3 156 73 337 
3 256 337 13 
3 14 258 338 
3 258 33 160 
3 338 160 75 
3 33 257 158 
3 257 13 339 
3 158 339 74 
3 75 159 341 
3 159 74 340 
3 341 340 4 
3 6 342 343 
3 342 76 163 
3 343 163 77 
3 76 344 161 
3 344 15 261 
3 161 261 37 
3 77 162 345 
3 162 37 265 
3 345 265 16 
3 15 346 260 
3 346 78 166 
3 260 166 35 
3 78 347 164 
3 347 4 340 
3 164 340 74 
3 35 165 262 
3 165 74 339 
3 262 339 13 
3 16 264 348 
3 264 36 169 
3 348 169 79 
3 36 263 167 
3 263 13 337 
3 167 337 73 
3 79 168 349 
3 168 73 336 
3 349 336 2 
3 0 334 314 
3 334 72 172 
3 314 172 62 
3 72 335 170 
3 335 14 267 
3 170 267 40 
3 62 171 316 
3 171 40 271 
3 316 271 8 
3 14 338 266 
3 338 75 175 
3 266 175 38 
3 75 341 173 
3 341 4 350 
3 173 350 80 
3 38 174 268 
3 174 80 351 
3 268 351 17 
3 8 270 318 
3 270 39 178 
3 318 178 64 
3 39 269 176 
3 269 17 352 
3 176 352 81 
3 64 177 319 
3 177 81 353 
3 319 353 1 
3 5 354 355 
3 354 82 181 
3 355 181 83 
3 82 356 179 
3 356 18 273 
3 179 273 43 
3 83 180 357 
3 180 43 277 
3 357 277 19 
3 18 358 272 
3 358 84 184 
3 272 184 41 
3 84 359 182 
3 359 1 353 
3 182 353 81 
3 41 183 274 
3 183 81 352 
3 274 352 17 
3 19 276 360 
3 276 42 187 
3 360 187 85 
3 42 275 185 
3 275 17 351 
3 185 351 80 
3 85 186 361 
3 186 80 350 
3 361 350 4 
3 7 362 363 
3 362 86 190 
3 363 190 87 
3 86 364 188 
3 364 20 279 
3 188 279 46 
3 87 189 365 
3 189 46 283 
3 365 283 22 
3 20 366 278 
3 366 88 193 
3 278 193 44 
3 88 367 191 
3 367 5 368 
3 191 368 89 
3 44 192 280 
3 192 89 369 
3 280 369 21 
3 22 282 370 
3 282 45 196 
3 370 196 91 
3 45 281 194 
3 281 21 371 
3 194 371 90 
3 91 195 373 
3 195 90 372 
3 373 372 6 
3 4 347 361 
3 347 78 199 
3 361 199 85 
3 78 346 197 
3 346 15 285 
3 197 285 49 
3 85 198 360 
3 198 49 289 
3 360 289 19 
3 15 344 284 
3 344 76 202 
3 284 202 47 
3 76 342 200 
3 342 6 372 
3 200 372 90 
3 47 201 286 
3 201 90 371 
3 286 371 21 
3 19 288 357 
3 288 48 205 
3 357 205 83 
3 48 287 203 
3 287 21 369 
3 203 369 89 
3 83 204 355 
3 204 89 368 
3 355 368 5 
3 7 363 374 
3 363 87 208 
3 374 208 92 
3 87 365 206 
3 365 22 291 
3 206 291 52 
3 92 207 375 
3 207 52 295 
3 375 295 24 
3 22 370 290 
3 370 91 211 
3 290 211 50 
3 91 373 209 
3 373 6 376 
3 209 376 93 
3 50 210 292 
3 210 93 377 
3 292 377 23 
3 24 294 378 
3 294 51 214 
3 378 214 95 
3 51 293 212 
3 293 23 379 
3 212 379 94 
3 95 213 381 
3 213 94 380 
3 381 380 3 
3 2 331 349 
3 331 70 217 
3 349 217 79 
3 70 330 215 
3 330 11 297 
3 215 297 55 
3 79 216 348 
3 216 55 301 
3 348 301 16 
3 11 328 296 
3 328 68 220 
3 296 220 53 
3 68 326 218 
3 326 3 380 
3 218 380 94 
3 53 219 298 
3 219 94 379 
3 298 379 23 
3 16 300 345 
3 300 54 223 
3 345 223 77 
3 54 299 221 
3 299 23 377 
3 221 377 93 
3 77 222 343 
3 222 93 376 
3 343 376 6 
3 7 374 362 
3 374 92 226 
3 362 226 86 
3 92 375 224 
3 375 24 303 
3 224 303 58 
3 86 225 364 
3 225 58 307 
3 364 307 20 
3 24 378 302 
3 378 95 229 
3 302 229 56 
3 95 381 227 
3 381 3 382 
3 227 382 96 
3 56 228 304 
3 228 96 383 
3 304 383 25 
3 20 306 366 
3 306 57 232 
3 366 232 88 
3 57 305 230 
3 305 25 384 
3 230 384 97 
3 88 231 367 
3 231 97 385 
3 367 385 5 
3 1 359 333 
3 359 84 235 
3 333 235 71 
3 84 358 233 
3 358 18 309 
3 233 309 61 
3 71 234 332 
3 234 61 313 
3 332 313 12 
3 18 356 308 
3 356 82 238 
3 308 238 59 
3 82 354 236 
3 354 5 385 
3 236 385 97 
3 59 237 310 
3 237 97 384 
3 310 384 25 
3 12 312 329 
3 312 60 241 
3 329 241 69 
3 60 311 239 
3 311 25 383 
3 239 383 96 
3 69 240 327 
3 240 96 382 
3 327 382 3 
